<svg width="20" height="17" viewBox="0 0 20 17" fill="none" xmlns="http://www.w3.org/2000/svg">
    <path id="Vector"
        d="M2 16.7329C1.45 16.7329 0.979002 16.5369 0.587002 16.1449C0.195002 15.7529 -0.000664969 15.2822 1.69779e-06 14.7329V2.73291C1.69779e-06 2.18291 0.196002 1.71191 0.588002 1.31991C0.980002 0.927912 1.45067 0.732245 2 0.732912H18C18.55 0.732912 19.021 0.928912 19.413 1.32091C19.805 1.71291 20.0007 2.18358 20 2.73291V14.7329C20 15.2829 19.804 15.7539 19.412 16.1459C19.02 16.5379 18.5493 16.7336 18 16.7329H2ZM10 9.73291L18 4.73291V2.73291L10 7.73291L2 2.73291V4.73291L10 9.73291Z"
        fill="white" />
</svg>