<svg width="18" height="18" viewBox="0 0 18 18" fill="none" xmlns="http://www.w3.org/2000/svg">
<path id="Vector" d="M12.5569 11.1389L12.1019 11.5919C12.1019 11.5919 11.0189 12.6679 8.06386 9.72989C5.10886 6.79189 6.19186 5.71589 6.19186 5.71589L6.47786 5.42989C7.18486 4.72789 7.25186 3.59989 6.63486 2.77589L5.37486 1.09289C4.61086 0.0728896 3.13586 -0.0621102 2.26086 0.80789L0.690856 2.36789C0.257856 2.79989 -0.032144 3.35789 0.002856 3.97789C0.092856 5.56489 0.810856 8.97789 4.81486 12.9599C9.06186 17.1819 13.0469 17.3499 14.6759 17.1979C15.1919 17.1499 15.6399 16.8879 16.0009 16.5279L17.4209 15.1159C18.3809 14.1629 18.1109 12.5279 16.8829 11.8609L14.9729 10.8219C14.1669 10.3839 13.1869 10.5129 12.5569 11.1389Z" fill="white"/>
</svg>
